<?xml version="1.0" standalone="no"?>
<!DOCTYPE svg PUBLIC "-//W3C//DTD SVG 20010904//EN"
 "http://www.w3.org/TR/2001/REC-SVG-20010904/DTD/svg10.dtd">
<svg version="1.0" xmlns="http://www.w3.org/2000/svg"
 width="1024.000000pt" height="1024.000000pt" viewBox="0 0 1024.000000 1024.000000"
 preserveAspectRatio="xMidYMid meet">

<g transform="translate(0.000000,1024.000000) scale(0.100000,-0.100000)"
fill="#000000" stroke="none">
<path d="M2730 8392 c-23 -7 -90 -73 -106 -105 -13 -25 -15 -245 -14 -1710 0
-925 3 -1717 7 -1761 6 -77 7 -78 46 -107 45 -33 88 -37 142 -15 18 8 38 23
44 34 8 15 11 529 11 1746 l0 1726 28 -5 c105 -18 555 -23 1397 -17 523 4 952
6 955 4 3 -2 7 -770 10 -1707 5 -1685 5 -1703 25 -1725 23 -25 86 -60 109 -60
37 0 95 32 105 58 13 35 13 3476 -1 3512 -13 35 -76 98 -121 121 -37 19 -66
20 -1330 18 -711 -1 -1299 -4 -1307 -7z"/>
<path d="M4575 8044 c-442 -49 -671 -89 -1075 -188 -74 -19 -179 -41 -233 -51
-69 -12 -99 -22 -105 -33 -4 -10 -5 -597 -2 -1307 4 -977 8 -1297 17 -1317 18
-40 55 -55 225 -88 84 -17 200 -44 258 -60 58 -17 179 -46 270 -66 391 -84
490 -106 685 -154 214 -52 246 -57 290 -40 l27 10 -3 1610 -4 1609 -25 27
c-60 64 -111 72 -325 48z m89 -754 c4 -278 12 -536 17 -573 8 -47 8 -138 0
-295 -6 -125 -13 -485 -17 -799 l-7 -573 -29 0 c-28 0 -401 73 -813 159 -104
22 -228 48 -275 57 -47 9 -92 20 -100 24 -13 6 -16 65 -23 391 -9 436 -5 1874
4 1884 6 6 217 50 599 124 85 17 233 40 328 51 95 12 203 29 240 39 37 10 68
17 68 17 1 -1 5 -228 8 -506z"/>
<path d="M4300 6731 c-81 -22 -101 -33 -135 -73 -22 -26 -26 -39 -22 -70 11
-85 99 -157 200 -165 83 -7 128 8 178 60 66 69 74 146 22 208 -52 62 -119 73
-243 40z"/>
<path d="M6667 7940 c-25 -22 -50 -55 -55 -73 -16 -52 -22 -408 -7 -443 6 -16
59 -78 116 -137 l104 -107 -547 0 -547 0 -20 -26 c-19 -25 -20 -35 -14 -362 3
-185 10 -345 15 -355 9 -17 40 -17 559 -15 302 2 549 1 549 -2 0 -3 -46 -53
-102 -110 l-103 -105 1 -220 c0 -243 7 -279 55 -320 26 -21 40 -25 98 -25 88
0 101 9 311 231 264 278 661 690 748 775 62 61 82 88 87 116 13 68 -1 93 -109
201 -95 95 -391 406 -516 542 -30 33 -105 111 -165 175 -61 63 -140 148 -175
188 -75 86 -119 112 -188 112 -43 0 -55 -5 -95 -40z"/>
<path d="M4485 4361 c-22 -3 -46 -10 -52 -14 -22 -14 -14 -53 20 -101 122
-173 237 -350 237 -366 0 -10 -4 -22 -10 -25 -9 -6 -204 -292 -247 -363 -47
-77 -24 -102 92 -102 89 0 107 10 151 80 22 34 54 81 72 106 19 25 44 64 57
86 l23 41 32 -44 c17 -24 53 -82 80 -130 28 -47 62 -98 76 -113 25 -24 33 -26
111 -26 146 0 154 23 59 162 -35 51 -78 120 -96 153 -18 33 -54 89 -78 124
-31 43 -42 68 -36 77 5 6 67 98 137 203 95 141 127 195 122 210 -10 31 -113
56 -184 45 -40 -6 -43 -10 -87 -94 -26 -49 -67 -114 -92 -146 l-45 -57 -42 85
c-49 100 -98 171 -133 194 -28 18 -109 26 -167 15z"/>
<path d="M5477 4363 c-15 -2 -34 -14 -42 -26 -16 -26 -16 7 -11 -506 l3 -404
23 -19 c16 -13 39 -18 87 -18 54 0 68 4 87 23 l23 23 5 440 c3 241 3 445 0
452 -2 7 -12 16 -21 21 -21 11 -118 20 -154 14z"/>
<path d="M3899 4350 c-196 -4 -260 -8 -272 -19 -15 -12 -17 -55 -17 -428 0
-334 3 -420 14 -448 27 -63 30 -64 346 -60 157 2 288 4 292 4 15 2 38 61 38
96 0 85 -27 95 -277 102 l-193 6 0 87 0 87 182 6 c100 4 184 9 187 12 11 12
13 137 2 148 -7 7 -76 14 -186 17 -96 3 -176 8 -179 11 -2 2 -6 45 -7 94 l-4
90 170 2 c200 2 269 9 290 29 10 11 15 36 15 84 0 82 -10 91 -92 88 -29 -1
-168 -5 -309 -8z"/>
<path d="M5848 4328 c-24 -23 -28 -35 -28 -82 0 -87 14 -96 151 -96 l111 0 -3
-92 c-1 -51 -2 -206 -1 -345 2 -250 2 -252 26 -280 22 -25 31 -28 104 -31 71
-4 82 -2 101 17 22 22 22 25 19 375 l-3 353 124 6 c137 7 154 14 165 71 9 49
-4 95 -32 114 -23 15 -66 17 -366 17 l-341 0 -27 -27z"/>
</g>
</svg>
