<svg width="70" height="40" viewBox="0 0 70 40" fill="none" xmlns="http://www.w3.org/2000/svg">
    <!-- Background with rounded corners and gradient -->
    <rect x="2" y="5" width="66" height="30" rx="5" fill="url(#bgGradient)" stroke="#1565C0" stroke-width="2"/>
    
    <!-- Keys -->
    <rect x="6" y="10" width="6" height="6" rx="1" fill="white"/>
    <rect x="14" y="10" width="6" height="6" rx="1" fill="white"/>
    <rect x="22" y="10" width="6" height="6" rx="1" fill="white"/>
    <rect x="30" y="10" width="6" height="6" rx="1" fill="white"/>
    <rect x="38" y="10" width="6" height="6" rx="1" fill="white"/>
    <rect x="46" y="10" width="6" height="6" rx="1" fill="white"/>
    <rect x="54" y="10" width="6" height="6" rx="1" fill="white"/>
    
    <rect x="6" y="20" width="24" height="6" rx="1" fill="white"/>
    <rect x="34" y="20" width="30" height="6" rx="1" fill="white"/>
    <rect x="14" y="28" width="42" height="6" rx="1" fill="white"/>
    
    <!-- Shadow effect -->
    <rect x="2" y="5" width="66" height="30" rx="5" fill="none" stroke="rgba(0,0,0,0.2)" stroke-width="3"/>

    <!-- Gradient definition -->
    <defs>
        <linearGradient id="bgGradient" x1="0" y1="0" x2="0" y2="40" gradientUnits="userSpaceOnUse">
            <stop offset="0%" stop-color="#1E88E5"/>
            <stop offset="100%" stop-color="#1565C0"/>
        </linearGradient>
    </defs>
</svg>
